<svg width="1440" height="557" viewBox="0 0 1440 557" fill="none" xmlns="http://www.w3.org/2000/svg">
<g clip-path="url(#clip0_488_4696)">
<rect width="1440" height="557" fill="#004C3F"/>
<path d="M-60 379C-60 323.772 -15.2285 279 40 279H1400C1455.23 279 1500 323.772 1500 379V836H-60V379Z" fill="#64FEDA"/>
<path d="M40 379C40 323.772 84.7715 279 140 279H1300C1355.23 279 1400 323.772 1400 379V836H40V379Z" fill="#6200E9"/>
<path d="M140 379C140 323.772 184.772 279 240 279H1200C1255.23 279 1300 323.772 1300 379V836H140V379Z" fill="#B0EA00"/>
<path d="M240 379C240 323.772 284.772 279 340 279H1100C1155.23 279 1200 323.772 1200 379V836H240V379Z" fill="#304FFF"/>
<path d="M340 379C340 323.772 384.772 279 440 279H1000C1055.23 279 1100 323.772 1100 379V836H340V379Z" fill="#B388FE"/>
<path d="M440 379C440 323.772 484.772 279 540 279H900C955.229 279 1000 323.772 1000 379V836H440V379Z" fill="#D50100"/>
<path d="M540 379C540 323.772 584.772 279 640 279H800C855.228 279 900 323.772 900 379V836H540V379Z" fill="#751312"/>
<rect opacity="0.4" y="279" width="1440" height="557" fill="black"/>
<path d="M-60 179C-60 234.228 -15.2285 279 40 279H1400C1455.23 279 1500 234.228 1500 179V-278H-60V179Z" fill="#64FEDA"/>
<path d="M40 179C40 234.228 84.7715 279 140 279H1300C1355.23 279 1400 234.228 1400 179V-278H40V179Z" fill="#6200E9"/>
<path d="M140 179C140 234.228 184.772 279 240 279H1200C1255.23 279 1300 234.228 1300 179V-278H140V179Z" fill="#B0EA00"/>
<path d="M240 179C240 234.228 284.772 279 340 279H1100C1155.23 279 1200 234.228 1200 179V-278H240V179Z" fill="#304FFF"/>
<path d="M340 179C340 234.228 384.772 279 440 279H1000C1055.23 279 1100 234.228 1100 179V-278H340V179Z" fill="#B388FE"/>
<path d="M440 179C440 234.228 484.772 279 540 279H900C955.229 279 1000 234.228 1000 179V-278H440V179Z" fill="#D50100"/>
<path d="M540 179C540 234.228 584.772 279 640 279H800C855.228 279 900 234.228 900 179V-278H540V179Z" fill="#751312"/>
<rect opacity="0.4" width="1440" height="557" transform="matrix(1 0 0 -1 0 279)" fill="black"/>
</g>
<defs>
<clipPath id="clip0_488_4696">
<rect width="1440" height="557" fill="white"/>
</clipPath>
</defs>
</svg>
