<svg width="1920" height="1200" viewBox="0 0 1920 1200" fill="none" xmlns="http://www.w3.org/2000/svg">
<path d="M1760 322.008H160V877.25H1760V322.008Z" fill="url(#paint0_linear_959_3784)"/>
<path d="M1591.38 472.22C1567.42 472.041 1543.95 479.457 1523.95 493.528C1503.95 507.599 1488.32 527.691 1479.04 551.253C1469.76 574.815 1467.25 600.787 1471.83 625.872C1476.41 650.956 1487.88 674.024 1504.77 692.148C1521.66 710.272 1543.22 722.635 1566.71 727.669C1590.2 732.703 1614.56 730.18 1636.71 720.421C1658.85 710.662 1677.78 694.107 1691.09 672.856C1704.39 651.605 1711.48 626.616 1711.46 601.059C1711.38 567.043 1698.73 534.431 1676.25 510.308C1653.76 486.184 1623.27 472.497 1591.38 472.22ZM1591.38 671.348C1582.51 671.787 1573.66 670.304 1565.35 666.988C1557.04 663.673 1549.44 658.594 1543.03 652.059C1536.61 645.524 1531.5 637.668 1528.01 628.967C1524.52 620.265 1522.72 610.899 1522.72 601.435C1522.72 591.971 1524.52 582.605 1528.01 573.904C1531.5 565.203 1536.61 557.347 1543.03 550.812C1549.44 544.276 1557.04 539.198 1565.35 535.882C1573.66 532.567 1582.51 531.083 1591.38 531.522C1608.23 532.356 1624.14 540.087 1635.79 553.106C1647.45 566.126 1653.95 583.435 1653.95 601.435C1653.95 619.436 1647.45 636.744 1635.79 649.764C1624.14 662.783 1608.23 670.514 1591.38 671.348Z" fill="white"/>
<path d="M1391.01 673.906C1350.8 673.906 1327.65 647.265 1327.65 600.757C1327.65 554.248 1350.94 525.5 1391.57 525.5C1399.12 525.318 1406.64 526.385 1413.87 528.661C1422.33 531.47 1430.26 535.852 1437.29 541.605L1462.97 494.796C1452.2 485.741 1439.74 479.226 1426.43 475.681C1413.76 472.341 1400.8 470.424 1387.77 469.961C1315.1 469.961 1266.41 523.694 1266.41 603.466C1266.41 680.379 1312.56 729.897 1384.24 729.897C1413.5 730.356 1441.97 719.684 1464.53 699.795L1434.47 658.554C1421.91 668.532 1406.67 673.917 1391.01 673.906Z" fill="white"/>
<path d="M1148.87 469.661C1123.04 469.586 1097.43 474.692 1073.38 484.712C1055.45 473.841 1034.99 468.621 1014.39 469.661C981.818 469.478 949.44 475.073 918.584 486.217L912.516 488.475V725.533H972.909V530.92C983.835 526.853 995.345 524.866 1006.92 525.049C1036.83 525.049 1045.58 535.285 1045.58 568.548V725.533H1106.68V564.183C1107.02 553.22 1106.12 542.254 1104 531.521C1114.46 527.472 1125.47 525.286 1136.59 525.049C1164.81 525.049 1177.94 538.897 1177.94 568.548V725.533H1238.47V563.431C1238.47 531.522 1233.67 512.707 1220.13 496.904C1210.64 487.379 1199.42 480.043 1187.16 475.356C1174.9 470.668 1161.86 468.729 1148.87 469.661Z" fill="white"/>
<path d="M877.246 590.975V725.534H794.417C737.974 725.534 712.293 721.169 682.379 700.248C656.556 681.433 642.305 645.912 642.305 599.554C642.305 535.887 681.673 471.317 768.595 471.317C839.148 470.715 877.246 512.708 877.246 590.975ZM816.853 598.2C816.853 549.735 799.215 525.803 763.797 525.803C728.38 525.803 704.815 554.099 704.815 596.845C704.815 648.17 727.815 670.596 779.46 670.596H816.853V598.2Z" fill="white"/>
<path d="M603.214 471.467C516.998 471.467 476.219 512.106 476.219 598.199V725.533H538.023V598.048C538.023 554.701 561.165 527.909 597.147 527.909C608.82 528.005 620.436 529.674 631.717 532.876L645.828 475.681C631.719 473.337 617.487 471.93 603.214 471.467Z" fill="white"/>
<path d="M443.339 590.975V725.534H360.51C304.068 725.534 278.386 721.169 248.472 700.248C222.791 681.433 208.539 645.912 208.539 599.554C208.539 535.887 247.908 471.317 334.688 471.317C405.382 470.715 443.339 512.708 443.339 590.975ZM382.946 598.2C382.946 549.735 365.308 525.803 330.031 525.803C294.755 525.803 270.908 554.099 270.908 596.845C270.908 648.17 294.049 670.596 345.553 670.596H382.946V598.2Z" fill="white"/>
<path d="M1591.38 730.651C1567.31 730.83 1543.74 723.382 1523.65 709.251C1503.56 695.121 1487.86 674.944 1478.53 651.281C1469.21 627.617 1466.68 601.533 1471.27 576.335C1475.86 551.138 1487.37 527.962 1504.32 509.748C1521.28 491.534 1542.93 479.102 1566.52 474.028C1590.11 468.954 1614.58 471.467 1636.83 481.248C1659.08 491.029 1678.1 507.639 1691.49 528.969C1704.88 550.299 1712.02 575.39 1712.02 601.059C1712.02 635.273 1699.34 668.099 1676.74 692.377C1654.14 716.654 1623.45 730.412 1591.38 730.651ZM1591.38 472.822C1567.54 472.673 1544.19 480.08 1524.3 494.103C1504.41 508.126 1488.88 528.134 1479.66 551.589C1470.45 575.044 1467.97 600.89 1472.55 625.848C1477.12 650.806 1488.54 673.753 1505.36 691.777C1522.18 709.802 1543.64 722.093 1567.02 727.091C1590.39 732.089 1614.63 729.57 1636.67 719.852C1658.7 710.134 1677.53 693.655 1690.77 672.506C1704.01 651.357 1711.06 626.49 1711.04 601.059C1710.96 567.177 1698.35 534.696 1675.94 510.681C1653.53 486.666 1623.14 473.06 1591.38 472.822ZM1591.38 671.951C1573.86 671.951 1557.07 664.53 1544.68 651.32C1532.3 638.11 1525.34 620.193 1525.34 601.511C1525.34 582.829 1532.3 564.912 1544.68 551.702C1557.07 538.492 1573.86 531.071 1591.38 531.071C1608.89 531.071 1625.69 538.492 1638.07 551.702C1650.46 564.912 1657.42 582.829 1657.42 601.511C1657.42 620.193 1650.46 638.11 1638.07 651.32C1625.69 664.53 1608.89 671.951 1591.38 671.951ZM1591.38 532.124C1578.48 532.035 1565.84 536.04 1555.08 543.63C1544.32 551.22 1535.91 562.052 1530.94 574.749C1525.96 587.446 1524.64 601.434 1527.14 614.936C1529.63 628.437 1535.84 640.842 1544.96 650.573C1554.08 660.304 1565.71 666.922 1578.37 669.584C1591.03 672.247 1604.14 670.835 1616.04 665.528C1627.95 660.22 1638.1 651.257 1645.22 639.777C1652.33 628.298 1656.09 614.821 1656 601.059C1655.86 582.825 1649 565.382 1636.91 552.489C1624.82 539.595 1608.47 532.281 1591.38 532.124Z" fill="#1D1D1B"/>
<path d="M1238.89 725.532H1177.51V568.547C1177.51 538.444 1164.81 525.65 1136.59 525.65C1125.7 525.818 1114.92 527.956 1104.7 531.972C1106.74 542.563 1107.6 553.376 1107.24 564.182V725.532H1045.44V568.547C1045.44 535.283 1036.97 525.65 1007.34 525.65C995.974 525.441 984.661 527.324 973.897 531.219V725.532H912.375V487.721L918.866 485.463C949.734 474.149 982.178 468.5 1014.82 468.757C1035.46 467.787 1055.94 473.001 1073.94 483.808C1097.99 473.94 1123.53 468.84 1149.29 468.757C1162.38 467.876 1175.5 469.881 1187.84 474.646C1200.17 479.41 1211.45 486.833 1220.97 496.451C1234.24 511.502 1239.32 530.768 1239.32 563.429L1238.89 725.532ZM1178.5 724.328H1237.91V563.429C1237.91 531.22 1232.83 512.556 1219.7 497.203C1210.33 487.732 1199.23 480.415 1187.09 475.703C1174.95 470.991 1162.04 468.986 1149.15 469.81C1123.42 469.819 1097.92 474.923 1073.94 484.862C1056.04 474.056 1035.65 468.841 1015.1 469.81C982.602 469.602 950.305 475.25 919.571 486.517L913.786 488.474V724.328H973.192V529.865C984.162 525.781 995.721 523.794 1007.34 523.995C1037.39 523.995 1046.57 534.38 1046.57 568.095V723.876H1106.54V564.182C1106.93 553.268 1106.03 542.344 1103.86 531.671C1114.34 527.502 1125.41 525.262 1136.59 525.048C1164.81 525.048 1178.92 539.046 1178.92 569.148L1178.5 724.328Z" fill="#1D1D1B"/>
<path d="M1386.64 730.499H1384.8C1312.84 730.499 1266.41 680.68 1266.41 603.466C1266.41 523.243 1315.38 469.359 1388.33 469.359C1401.42 469.793 1414.43 471.71 1427.13 475.078C1440.3 478.823 1452.6 485.434 1463.26 494.495L1437.43 541.906C1430.4 536.249 1422.53 531.875 1414.15 528.962C1406.95 526.791 1399.48 525.776 1392 525.952C1351.64 525.952 1328.64 553.044 1328.64 600.456C1328.64 647.868 1351.5 673.003 1391.43 673.003C1407.16 673.21 1422.53 667.925 1435.18 657.952L1465.51 699.493C1443.48 719.442 1415.54 730.426 1386.64 730.499ZM1388.33 470.413C1316.08 470.413 1267.4 523.996 1267.4 603.466C1267.4 679.927 1313.54 729.446 1384.8 729.446C1413.71 729.916 1441.86 719.587 1464.39 700.246L1434.89 659.909C1422.13 669.758 1406.76 675.028 1391.01 674.96C1350.37 674.96 1327.09 648.018 1327.09 601.208C1327.09 554.399 1350.65 525.952 1391.57 525.952C1399.16 525.824 1406.72 526.889 1414.01 529.113C1422.35 531.862 1430.19 536.141 1437.15 541.756L1462.27 496.602C1451.83 487.759 1439.76 481.35 1426.85 477.788C1414.29 473.892 1401.38 471.42 1388.33 470.413Z" fill="#1D1D1B"/>
<path d="M539.292 725.533H476.5V598.2C476.5 511.354 516.715 470.865 603.495 470.865C618.083 471.159 632.642 472.366 647.097 474.478L632.986 532.275C621.762 529.009 610.191 527.289 598.557 527.157C562.433 527.157 539.998 553.949 539.998 596.845L539.292 725.533ZM477.488 724.33H538.304V597.447C538.304 553.798 561.023 526.706 597.851 526.706C609.432 526.806 620.954 528.475 632.14 531.673L646.25 475.532C632.22 473.445 618.083 472.289 603.919 472.07C518.126 472.07 478.193 512.106 478.193 598.2L477.488 724.33Z" fill="#1D1D1B"/>
<path d="M877.81 725.533H794.417C737.974 725.533 712.857 721.62 681.532 700.097C655.568 681.132 641.176 645.159 641.176 598.952C641.176 534.833 680.403 470.113 768.171 470.113C782.965 469.078 797.8 471.296 811.757 476.629C825.714 481.963 838.495 490.298 849.307 501.118C869.533 526.06 879.679 558.528 877.528 591.426L877.81 725.533ZM768.594 471.317C681.673 471.317 642.869 535.435 642.869 598.952C642.869 644.858 656.98 680.379 682.661 699.194C713.14 720.566 738.398 724.329 794.417 724.329H876.117V590.975C878.042 558.473 867.905 526.468 847.896 501.871C837.29 491.342 824.797 483.207 811.17 477.957C797.542 472.706 783.061 470.447 768.594 471.317ZM817.417 671.198H779.459C727.391 671.198 704.25 648.32 704.25 596.694C704.25 553.347 727.674 525.201 763.797 525.201C799.92 525.201 817.417 549.734 817.417 598.2V671.198ZM763.797 526.405C728.238 526.405 705.379 553.949 705.379 596.694C705.379 647.417 728.238 670.145 779.459 670.145H816.288V598.2C816.288 549.885 799.073 526.405 763.232 526.405H763.797Z" fill="#1D1D1B"/>
<path d="M443.908 725.535H360.514C304.072 725.535 278.955 721.772 247.629 700.098C221.666 681.134 207.414 645.161 207.414 598.954C207.414 534.835 246.642 470.265 334.409 470.265C349.165 469.107 363.987 471.18 377.965 476.357C391.942 481.534 404.779 489.705 415.687 500.368C435.831 525.359 445.966 557.79 443.908 590.676V725.535ZM334.692 471.318C247.912 471.318 208.966 535.437 208.966 598.954C208.966 644.86 223.077 680.381 248.899 699.195C279.378 720.568 304.636 724.331 360.514 724.331H442.779V590.976C444.682 558.524 434.546 526.574 414.558 502.023C403.91 491.369 391.333 483.15 377.599 477.869C363.865 472.589 349.263 470.36 334.692 471.318ZM383.514 671.2H345.557C293.63 671.2 270.348 648.322 270.348 596.847C270.348 553.348 293.771 525.202 330.035 525.202C366.299 525.202 383.514 549.736 383.514 598.201V671.2ZM330.035 526.406C294.476 526.406 271.476 553.95 271.476 596.847C271.476 647.419 294.335 670.146 345.557 670.146H382.245V598.201C382.245 549.887 365.312 526.406 330.035 526.406Z" fill="#1D1D1B"/>
<defs>
<linearGradient id="paint0_linear_959_3784" x1="160" y1="599.704" x2="1774.25" y2="599.704" gradientUnits="userSpaceOnUse">
<stop stop-color="#00A439"/>
<stop offset="0.25" stop-color="#00A439"/>
<stop offset="0.32" stop-color="#05A045"/>
<stop offset="0.46" stop-color="#119665"/>
<stop offset="0.63" stop-color="#268799"/>
<stop offset="0.75" stop-color="#357BBF"/>
<stop offset="1" stop-color="#357BBF"/>
</linearGradient>
</defs>
</svg>
