<svg width="1920" height="1200" viewBox="0 0 1920 1200" fill="none" xmlns="http://www.w3.org/2000/svg">
<rect width="1600" height="533" transform="translate(160 334)" fill="#E1140A"/>
<path d="M855.275 524.102C831.892 524.102 805.3 534.953 789.052 556.679L789.063 556.635L789.052 556.646L789.063 527.513H733.294V730.838H789.052V615.143C789.052 594.32 805.179 572.187 835.036 572.187C858.111 572.187 881.988 588.255 881.988 615.143V730.838H937.757V604.797C937.757 558.033 904.337 524.102 855.275 524.102Z" fill="white"/>
<path d="M1334.11 527.521L1283.7 666.021L1233.28 527.521H1169.58L1253.14 730.78H1314.25L1397.81 527.521H1334.11Z" fill="white"/>
<path d="M566.807 588.773C576.305 576.006 591.432 568.511 609.702 568.511C629.798 568.511 645.046 580.001 652.928 596.961L555.495 637.431C552.835 616.662 558.144 600.417 566.807 588.773ZM673.947 668.324C650.476 685.714 637.064 689.863 615.661 689.863C596.401 689.863 581.318 683.876 570.688 673.376L713.258 614.164C710.147 592.097 701.781 572.385 688.908 557.395C670.176 535.614 642.451 524.091 608.691 524.091C547.371 524.091 501.134 569.38 501.134 629.198C501.134 690.567 547.481 734.294 614.836 734.294C652.576 734.294 691.162 716.387 709.213 695.465L673.947 668.324Z" fill="white"/>
<path d="M495.818 679.572H369.067V466.705H312.54V730.838H495.818V679.572Z" fill="white"/>
<path d="M1497.95 571.936C1466.8 571.936 1444.19 595.566 1444.19 629.178C1444.19 661.271 1468.14 686.42 1498.69 686.42C1529.85 686.42 1552.45 662.141 1552.45 629.178C1552.45 597.085 1528.51 571.936 1497.95 571.936ZM1497.95 734.263C1436.96 734.263 1389.17 688.775 1389.17 629.178C1389.17 570.252 1437.29 524.093 1498.69 524.093C1559.68 524.093 1607.46 569.581 1607.46 629.178C1607.46 688.093 1559.35 734.263 1497.95 734.263Z" fill="white"/>
<path d="M1068.59 571.936C1037.44 571.936 1014.84 595.566 1014.84 629.178C1014.84 661.271 1038.78 686.42 1069.34 686.42C1100.49 686.42 1123.09 662.141 1123.09 629.178C1123.09 597.085 1099.15 571.936 1068.59 571.936ZM1068.59 734.263C1007.6 734.263 959.819 688.775 959.819 629.178C959.819 570.252 1007.93 524.093 1069.34 524.093C1130.32 524.093 1178.11 569.581 1178.11 629.178C1178.11 688.093 1129.99 734.263 1068.59 734.263Z" fill="white"/>
</svg>
